<svg width="222" height="90" viewBox="0 0 222 90" fill="none" xmlns="http://www.w3.org/2000/svg">
<g clip-path="url(#clip0_1481_42)">
<path d="M119.681 39.12C117.606 43.5821 111.81 45.0297 107.468 43.3884C105.195 42.5281 103.475 40.9624 102.418 38.7689C101.948 37.6724 101.558 36.536 101.637 35.3645H107.546C107.546 36.7727 108.603 37.9485 109.855 38.4177C111.658 39.1237 113.847 38.4177 114.747 36.6547C115.256 35.7156 115.098 34.5798 114.509 33.7195C113.532 32.1926 111.614 31.9958 109.969 31.8414C108.091 31.644 106.131 30.9811 104.489 29.8453C101.279 27.5374 100.651 22.8785 102.257 19.5098C104.332 15.0477 110.126 13.6001 114.47 15.2414C116.743 16.0624 118.424 17.6281 119.519 19.861C119.989 20.8393 120.38 22.0545 120.265 23.2653H114.395C114.395 21.8177 113.337 20.6419 112.048 20.2121C110.718 19.6636 109.073 19.9003 108.016 20.8787C106.841 21.9358 106.568 23.6202 107.428 24.9103C108.406 26.3973 110.324 26.634 111.929 26.749C113.846 26.9464 115.803 27.6093 117.448 28.7452C120.659 31.0568 121.287 35.755 119.681 39.12Z" fill="black"/>
<path d="M144.594 20.2919H136.922V43.4288H131.754V20.2919H124.121V15.2031H144.594V20.2919Z" fill="black"/>
<path d="M158.901 15.1641L145.043 43.4685H150.486L158.901 26.288L167.319 43.4685H172.759L158.901 15.1641Z" fill="black"/>
<path d="M198.219 43.4298H191.875L186.865 36.0688L185.298 33.8359L185.259 33.7572H181.461V43.4261H176.332V15.043H186.707C191.874 15.043 196.104 19.272 196.104 24.4394C196.104 28.1199 193.99 31.2918 190.857 32.8182H190.898L198.219 43.4298ZM190.857 24.4431C190.857 22.2102 189.133 20.4115 186.984 20.2928H181.465V28.6322H186.984C189.133 28.4747 190.857 26.6366 190.857 24.4431Z" fill="black"/>
<path d="M221.997 20.2919H214.323V43.4288H209.155V20.2919H201.523V15.2031H221.997V20.2919Z" fill="black"/>
<path d="M118.788 74.6065V61.368L111.918 68.2899L104.996 61.368V74.6065H102.391V55.1562L111.866 64.6315L121.393 55.1562V74.6065H118.788Z" fill="black"/>
<path d="M132.684 75.0549C128.736 75.0549 125.499 71.8178 125.473 67.8433V55.5781H128.052V67.8433C128.052 70.3966 130.131 72.4758 132.684 72.4758C135.238 72.4758 137.343 70.3966 137.317 67.8433V55.5781H139.896V67.8433C139.896 71.8178 136.659 75.0549 132.684 75.0549Z" fill="black"/>
<path d="M144.027 74.3947V55.1289L156.503 68.1831V55.576H159.056V74.8418L146.58 61.787V74.3941L144.027 74.3947Z" fill="black"/>
<path d="M163.164 74.5799V55.5508H165.743V74.5799H163.164Z" fill="black"/>
<path d="M184.929 73.082C183.297 74.3715 181.297 75.0824 179.138 75.0824C173.769 75.0824 169.426 70.608 169.426 65.1073C169.426 59.6066 173.769 55.2109 179.138 55.2109C181.297 55.2109 183.297 55.9218 184.929 57.2113L183.06 59.1589C181.981 58.3693 180.586 57.9216 179.138 57.9216C175.217 57.9216 172.058 61.1851 172.058 65.1067C172.058 69.0282 175.217 72.3711 179.138 72.3711C180.586 72.3711 181.981 71.9234 183.06 71.108L184.929 73.082Z" fill="black"/>
<path d="M201.065 74.5807V66.3428H190.984V74.5807H188.379V55.5781H190.984V63.7637H201.065V55.5781H203.644V74.5807H201.065Z" fill="black"/>
<path d="M30.2747 14.7266C13.5566 14.7266 0 28.2802 0 45.0013C0 61.7225 13.5535 75.276 30.2747 75.276C46.9958 75.276 60.5494 61.7225 60.5494 45.0013C60.5494 28.2802 46.9928 14.7266 30.2747 14.7266ZM41.9661 58.7781L30.2747 33.594L18.5832 58.7781H13.4871L30.2778 22.6515L47.0684 58.7781H41.9661Z" fill="black"/>
<path d="M82.2781 0H79.6836V90H82.2781V0Z" fill="black"/>
</g>
<defs>
<clipPath id="clip0_1481_42">
<rect width="222" height="90" fill="white"/>
</clipPath>
</defs>
</svg>
